<svg width="566" height="140" viewBox="0 0 566 140" fill="none" xmlns="http://www.w3.org/2000/svg">
<path d="M107.764 88.0309C105.087 127.551 72.1721 142.173 35.4902 134.467L36.6799 128.243C61.8615 132.096 96.8581 121.228 99.634 87.6357L107.764 88.0309Z" fill="white"/>
<path d="M84.071 109.174C54.3289 135.258 20.4229 122.414 0 91.0939L5.1553 87.5371C20.2246 108.088 52.7427 124.982 78.5191 103.246L84.071 109.174Z" fill="white"/>
<path d="M52.1451 107.494C12.489 104.728 -2.18378 72.025 5.54916 35.3701L11.795 36.5557C7.92854 61.7498 18.834 96.5275 52.5417 99.3927L52.1451 107.494Z" fill="white"/>
<path d="M30.8324 83.7826C4.65941 53.5497 17.5477 20.3528 48.9751 0L52.5442 5.23641C32.0222 20.254 14.97 52.5617 36.88 78.3486L30.8324 83.7826Z" fill="white"/>
<path d="M32.6152 51.9687C35.292 12.4486 68.2066 -2.17384 104.889 5.53258L103.699 11.757C78.5172 7.90378 43.5207 18.7718 40.7447 52.3639L32.6152 51.9687Z" fill="white"/>
<path d="M56.0098 30.7267C85.7519 4.7422 119.559 17.5862 140.081 48.9059L135.322 52.4627C120.253 31.9123 87.7346 15.0174 61.9582 36.7535L56.0098 30.7267Z" fill="white"/>
<path d="M88.2345 32.5049C127.891 35.2713 142.563 67.9742 134.83 104.53L128.585 102.949C132.55 77.8542 121.546 43.0765 87.8379 40.2113L88.2345 32.5049Z" fill="white"/>
<path d="M109.55 56.2178C135.723 85.8578 122.834 119.648 91.4069 140L87.8379 134.764C108.36 119.746 125.412 87.4386 103.601 61.6518L109.55 56.2178Z" fill="white"/>
<path d="M417.631 54.3601C415.014 49.3953 411.004 45.2965 406.09 42.5635C401.243 39.9479 395.819 38.5781 390.307 38.5781C384.795 38.5781 379.371 39.9479 374.524 42.5635C369.739 45.2986 365.785 49.2729 363.081 54.0652C360.312 58.9152 358.882 64.4105 358.938 69.9906C358.845 75.6208 360.132 81.1887 362.687 86.211C365.165 90.9612 369.013 94.8641 373.735 97.4178C378.894 100.243 384.719 101.635 390.603 101.448C397.524 101.681 404.368 99.9421 410.332 96.4347C413.89 94.1325 416.862 91.0361 419.012 87.3906L406.879 82.4754C405.479 84.889 403.428 86.864 400.96 88.1771C397.683 89.7964 394.063 90.6056 390.406 90.5364C388.085 90.6824 385.759 90.3624 383.565 89.5954C381.371 88.8284 379.354 87.63 377.633 86.0713C375.913 84.5126 374.524 82.6254 373.549 80.5217C372.575 78.4179 372.034 76.1405 371.959 73.8245H421.774C422.09 67.0897 420.664 60.387 417.631 54.3601ZM372.748 64.1906C373.647 60.284 375.878 56.8093 379.062 54.3601C382.412 51.9671 386.431 50.6802 390.554 50.6802C394.676 50.6802 398.695 51.9671 402.046 54.3601C405.229 56.8093 407.46 60.284 408.359 64.1906H372.748Z" fill="white"/>
<path d="M324.809 52.1968L305.08 50.329C301.611 50.2617 298.216 49.3143 295.216 47.5764C294.21 46.8745 293.401 45.928 292.866 44.8268C292.331 43.7257 292.087 42.5064 292.158 41.2849C292.151 39.5527 292.604 37.8494 293.47 36.3475C294.336 34.8456 295.585 33.5985 297.09 32.7324C301.139 30.2418 305.853 29.0415 310.604 29.2917C315.625 29.2792 320.548 30.676 324.809 33.3222C328.693 35.6055 331.763 39.043 333.588 43.1527H349.568C346.674 35.215 341.406 28.3528 334.476 23.4917C327.419 18.8945 319.132 16.5301 310.703 16.7086C304.808 16.5899 298.956 17.7296 293.539 20.051C288.927 22.04 284.94 25.2325 281.998 29.2917C279.339 33.1347 277.927 37.6983 277.953 42.3663C277.767 45.2438 278.219 48.1268 279.276 50.811C280.333 53.4952 281.969 55.9148 284.069 57.8985C289.8 62.0808 296.695 64.3827 303.798 64.4849L323.527 66.2544C327.033 66.3501 330.445 67.4043 333.391 69.3019C334.433 70.1504 335.255 71.2366 335.787 72.4686C336.32 73.7005 336.547 75.0421 336.449 76.3798C336.458 78.2286 335.991 80.0488 335.093 81.6666C334.195 83.2844 332.896 84.6457 331.319 85.6205C326.893 88.2569 321.767 89.491 316.622 89.1595C311.289 89.3429 306.006 88.0861 301.332 85.5222C297.343 83.3096 294.191 79.8571 292.355 75.6917H276.572C279.523 83.682 284.903 90.5552 291.961 95.3527C299.389 100.019 308.041 102.38 316.819 102.136C323.048 102.316 329.242 101.142 334.969 98.6951C339.782 96.6226 343.893 93.209 346.806 88.8646C349.567 84.9175 351.016 80.2073 350.949 75.3968C351.105 72.4256 350.632 69.455 349.561 66.6777C348.491 63.9003 346.846 61.3782 344.735 59.2747C339.058 54.7903 332.052 52.3019 324.809 52.1968Z" fill="white"/>
<path d="M239.187 38.729C235.321 38.4917 231.461 39.2757 227.997 41.0019C224.533 42.728 221.587 45.3351 219.458 48.5595V40.4002H206.832V94.173L219.656 99.973V71.8578C219.173 66.2369 220.789 60.6361 224.193 56.129C225.676 54.4138 227.529 53.0545 229.613 52.1524C231.696 51.2502 233.958 50.8286 236.228 50.9188C238.173 50.7895 240.124 51.0634 241.958 51.7233C243.791 52.3832 245.468 53.4147 246.881 54.7527C248.228 56.275 249.254 58.0515 249.898 59.9767C250.542 61.9019 250.791 63.9365 250.63 65.9595V100.071H263.552V64.2883C263.757 60.8859 263.288 57.4765 262.171 54.2548C261.054 51.0331 259.311 48.0623 257.042 45.512C254.698 43.2121 251.901 41.4217 248.828 40.2541C245.755 39.0866 242.472 38.5673 239.187 38.729Z" fill="white"/>
<path d="M488.261 54.3599C485.643 49.395 481.633 45.2963 476.719 42.5633C471.962 40.0088 466.636 38.6903 461.232 38.7294C455.571 38.7357 450.016 40.2639 445.153 43.1531C440.368 45.8882 436.414 49.8625 433.711 54.6548C430.911 59.497 429.447 64.9917 429.469 70.5802C429.361 76.2235 430.684 81.8028 433.316 86.8005C435.795 91.5508 439.642 95.4536 444.364 98.0073C449.523 100.833 455.349 102.225 461.232 102.038C468.153 102.271 474.997 100.532 480.961 97.0243C484.52 94.7221 487.492 91.6257 489.642 87.9802L477.804 82.4751C476.404 84.8888 474.354 86.8638 471.886 88.1768C468.608 89.7961 464.988 90.6054 461.331 90.5361C459.01 90.6822 456.684 90.3622 454.49 89.5952C452.296 88.8281 450.279 87.6297 448.558 86.0711C446.838 84.5124 445.449 82.6252 444.475 80.5214C443.5 78.4177 442.959 76.1402 442.885 73.8243H492.7C492.924 67.0636 491.395 60.3595 488.261 54.3599ZM443.378 64.1904C444.237 60.2673 446.476 56.7801 449.691 54.3599C452.969 51.867 457.012 50.5818 461.134 50.7226C465.281 50.6144 469.344 51.8951 472.675 54.3599C475.858 56.8091 478.09 60.2837 478.988 64.1904H443.378Z" fill="white"/>
<path d="M536.695 62.3222L564.907 40.4002H547.348L516.473 64.0917V17.79H503.551V94.0748V100.071H516.473V99.8748V77.5595L526.14 69.8917L549.124 100.071H565.499L536.695 62.3222Z" fill="white"/>
<path d="M206.831 27.8174V22.3124V16.1191H198.15H193.12V23.6886L180 17.7903V100.072H193.711V28.0141L206.831 34.0107V27.8174Z" fill="white"/>
</svg>
