<svg width="140" height="140" viewBox="0 0 140 140" fill="none" xmlns="http://www.w3.org/2000/svg">
<path d="M107.494 88.0316C104.728 127.552 72.0249 142.174 35.4688 134.468L36.6544 128.441C61.7496 132.294 96.6261 121.426 99.3925 87.834L107.494 88.0316Z" fill="white"/>
<path d="M83.7826 109.174C54.1425 135.258 20.3529 122.414 0 91.0939L5.23641 87.5371C20.2541 108.088 52.5617 124.982 78.3486 103.246L83.7826 109.174Z" fill="white"/>
<path d="M52.068 107.495C12.5479 104.729 -2.17332 72.026 5.6319 35.3711L11.7575 36.5567C7.90431 61.7508 18.7723 96.5285 52.3644 99.3937L52.068 107.495Z" fill="white"/>
<path d="M30.8255 83.7826C4.74224 53.8461 17.5863 20.3529 49.4 0L52.9568 5.23641C31.9123 20.2541 15.0175 52.5617 36.7535 78.3486L30.8255 83.7826Z" fill="white"/>
<path d="M32.5039 51.9687C35.2703 12.4486 67.9732 -2.17384 104.628 5.53258L103.443 11.757C78.2484 7.90378 43.4707 18.7718 40.6055 52.3639L32.5039 51.9687Z" fill="white"/>
<path d="M56.2188 30.8255C86.1552 4.74224 119.649 17.5863 140.001 49.4L134.765 52.9568C119.747 31.9123 87.4396 15.0175 61.7516 36.7535L56.2188 30.8255Z" fill="white"/>
<path d="M88.0296 32.5059C127.55 35.2723 142.172 67.9752 134.466 104.531L128.439 103.346C132.292 78.2504 121.424 43.4727 87.832 40.6075L88.0296 32.5059Z" fill="white"/>
<path d="M109.273 56.2178C135.356 85.8579 122.512 119.648 91.0939 140L87.5371 134.764C108.088 119.746 124.982 87.4387 103.246 61.6518L109.273 56.2178Z" fill="white"/>
</svg>
